# xmcd CD database file
#
# Track frame offsets:
#	182
#	14452
#	28237
#	42297
#	54945
#	67910
#	81917
#	95877
#	108285
#	120390
#	133425
#	145342
#	158120
#	171630
#	184865
#	198602
#	212897
#	225485
#	239132
#	251132
#	263942
#	275942
#	287940
#	300845
#	314822
#
# Disc length: 4372 seconds
#
# Revision: 0
# Processed by: cddbd v1.4PL0 Copyright (c) Steve Scherf et al.
# Submitted via: CDex 1.50
#
DISCID=8d111219
DTITLE=Mound City Blue Blowers - 1935-1936
DYEAR=1996
DGENRE=Jazz
TTITLE0=What's the Reason (I'm Not Pleasing You?)  
TTITLE1=She's a Latin from Manhattan  
TTITLE2=You've Been Takin' Lessons  
TTITLE3=Indiana  
TTITLE4=Red Sails in the Sunset  
TTITLE5=I'm Sittin' High on a Hill Top  
TTITLE6=On Treasure Island  
TTITLE7=Thanks a Million  
TTITLE8=Eeny Meeny Meiny Mo  
TTITLE9=A Little Bit Independent  
TTITLE10=I'm Shooting High  
TTITLE11=I've Got My Fingers Crossed  
TTITLE12=High Society  
TTITLE13=Muskrat Ramble  
TTITLE14=The Broken Record  
TTITLE15=The Music Goes 'Round and Around  
TTITLE16=I'm Gonna Sit Right Down (And Write Myself a Letter)  
TTITLE17=Mama Don't Allow It  
TTITLE18=(If I Had) Rhythm in My Nursery Rhymes  
TTITLE19=I Hope Gabriel Likes My Music  
TTITLE20=You Hit the Spot  
TTITLE21=Spreadin' Rhythm Around  
TTITLE22=Saddle Your Blues to a Wild Mustang  
TTITLE23=Wah-Hoo!  
TTITLE24=I'm Gonna Clap My Hands 
EXTD=YEAR: 1996
EXTT0=
EXTT1=
EXTT2=
EXTT3=
EXTT4=
EXTT5=
EXTT6=
EXTT7=
EXTT8=
EXTT9=
EXTT10=
EXTT11=
EXTT12=
EXTT13=
EXTT14=
EXTT15=
EXTT16=
EXTT17=
EXTT18=
EXTT19=
EXTT20=
EXTT21=
EXTT22=
EXTT23=
EXTT24=
PLAYORDER=
